<?xml version="1.0" encoding="utf-8"?>
<!-- Generator: Adobe Illustrator 16.2.0, SVG Export Plug-In . SVG Version: 6.00 Build 0)  -->
<!DOCTYPE svg PUBLIC "-//W3C//DTD SVG 1.1//EN" "http://www.w3.org/Graphics/SVG/1.1/DTD/svg11.dtd" [
	<!ENTITY ns_flows "http://ns.adobe.com/Flows/1.0/">
	<!ENTITY ns_extend "http://ns.adobe.com/Extensibility/1.0/">
	<!ENTITY ns_ai "http://ns.adobe.com/AdobeIllustrator/10.0/">
	<!ENTITY ns_graphs "http://ns.adobe.com/Graphs/1.0/">
]>
<svg version="1.1" id="Layer_1" xmlns:x="&ns_extend;" xmlns:i="&ns_ai;" xmlns:graph="&ns_graphs;"
	 xmlns="http://www.w3.org/2000/svg" xmlns:xlink="http://www.w3.org/1999/xlink" xmlns:a="http://ns.adobe.com/AdobeSVGViewerExtensions/3.0/"
	 x="0px" y="0px" width="50px" height="76px" viewBox="0 0 50 76" style="enable-background:new 0 0 50 76;" xml:space="preserve">
<style type="text/css">
<![CDATA[
	.st0{fill:url(#SVGID_1_);}
	.st1{fill:#FFFFFF;}
]]>
</style>
<g>
	<path class="st1" d="M25,75.346c-2.097,0-3.98-1.488-5.168-4.08L3.065,34.88c-1.461-3.174-2.201-6.568-2.201-10.089
		C0.864,11.482,11.691,0.655,25,0.655c13.309,0,24.137,10.827,24.137,24.136c0,3.532-0.742,6.927-2.203,10.091l-16.768,36.39
		C28.971,73.861,27.086,75.346,25,75.346z"/>
	
		<linearGradient id="SVGID_1_" gradientUnits="userSpaceOnUse" x1="567.3213" y1="776.7539" x2="567.3213" y2="841.1573" gradientTransform="matrix(1 0 0 1 -542.3203 -764.9199)">
		<stop  offset="0" style="stop-color:#54B7F0"/>
		<stop  offset="1" style="stop-color:#1B83CE"/>
		<a:midPointStop  offset="0" style="stop-color:#54B7F0"/>
		<a:midPointStop  offset="0.5" style="stop-color:#54B7F0"/>
		<a:midPointStop  offset="1" style="stop-color:#1B83CE"/>
	</linearGradient>
	<path class="st0" d="M25,2.777c-12.158,0-22.014,9.855-22.014,22.015c0,3.284,0.722,6.409,2.007,9.201l16.769,36.389
		c0.802,1.751,1.957,2.841,3.238,2.841s2.432-1.09,3.238-2.838l16.77-36.392c1.289-2.792,2.008-5.917,2.008-9.201
		C47.016,12.632,37.159,2.777,25,2.777z"/>
	<path id="clogoblue.svg" class="st1" d="M43.545,16.482l0.184,0.019c-0.008,0.019-0.015,0.031-0.022,0.049l-4.699,2.031
		c-1.282,0.609-2.612,1.047-3.813,1.736c-4.115,2.307-8.057,4.913-11.792,7.794c-1.354,1.066-2.622,2.238-3.794,3.503
		c-0.255,0.283-1.064,0.843-1.108,1.244c0.379,0.522,0.863,0.962,1.423,1.286c1.684,1.164,4.356,2.426,7.363,1.946
		c0.67-0.047,1.335-0.146,1.988-0.295c2.953-0.856,5.42-2.893,6.819-5.628c0.632-1.394,1.034-2.878,1.197-4.401V23.71
		c-0.067-0.235-0.086-0.484-0.045-0.726c0.01,0.018,0.017,0.03,0.021,0.049c0.188,0.568,0.285,1.162,0.295,1.761
		c0.252,2.079-0.064,4.188-0.924,6.1c-1.66,3.86-5.086,6.679-9.193,7.566c-1.016,0.222-2.062,0.274-3.094,0.161
		c-0.915-0.063-1.829-0.175-2.732-0.339c-1.723-0.499-3.339-1.31-4.767-2.395c-0.331-0.308-0.663-0.623-0.995-0.93
		c-0.426-0.35-1.983-2.001-2.031-2.573c0.515-0.667,1.142-1.24,1.854-1.693c1.153-0.886,2.316-1.748,3.523-2.597
		c3.438-2.467,7.09-4.623,10.908-6.439c1.771-0.825,3.613-1.539,5.399-2.37c0.595-0.221,1.19-0.438,1.785-0.659
		c1.306-0.517,2.709-1.022,4.063-1.489C42.085,16.919,42.816,16.698,43.545,16.482z M24.523,12.438
		c2.659-0.082,5.265,0.746,7.387,2.346c0.4,0.295,1.375,0.874,1.561,1.312h-0.022c-0.406-0.283-0.813-0.574-1.22-0.856
		c-1.006-0.581-2.084-1.021-3.207-1.312c-3.625-0.991-7.506-0.109-10.348,2.352c-0.916,0.865-1.686,1.871-2.281,2.979
		c-0.572,1.071-0.983,2.22-1.221,3.41L15.06,23.87c-0.111,0.653-0.202,1.779,0.091,2.277c0.431,0.086,1.279-0.647,1.604-0.855
		c1.322-0.81,2.705-1.52,4.134-2.125c2.325-1.046,4.751-1.962,7.296-2.825c1.263-0.424,2.522-0.647,3.84-1.016
		c1.029-0.29,2.082-0.45,3.186-0.72c0.602-0.186,1.225-0.3,1.852-0.339c-0.104,0.209-1.252,0.431-1.558,0.542
		c-1.662,0.579-3.38,1.035-4.971,1.693c-4.464,1.9-8.706,4.288-12.649,7.116c-1.123,0.782-2.206,1.638-3.275,2.481
		c-0.362,0.289-0.796,0.942-1.354,0.973c-0.47-0.259-0.621-1.041-0.791-1.602c-0.573-2.085-0.642-4.278-0.204-6.395
		c0.233-0.85,0.366-1.595,0.655-2.352c1.428-3.694,3.935-5.972,7.568-7.474c0.871-0.321,1.771-0.556,2.688-0.701L24.523,12.438z"/>
</g>
</svg>
